<svg width="74" height="50" viewBox="0 0 74 50" fill="none" xmlns="http://www.w3.org/2000/svg">
<path d="M67.6211 15.4706V41.9999C67.6211 45.5897 64.7109 48.4999 61.1211 48.4999H14.5059C10.916 48.4999 8.00586 45.5897 8.00586 41.9999V15.4706H67.6211Z" fill="white" stroke="#999999" stroke-width="3"/>
<mask id="path-2-inside-1_923_2672" fill="white">
<rect x="22.7695" y="27.9412" width="28.4615" height="22.0588" rx="1"/>
</mask>
<rect x="22.7695" y="27.9412" width="28.4615" height="22.0588" rx="1" fill="white" stroke="#999999" stroke-width="6" mask="url(#path-2-inside-1_923_2672)"/>
<path d="M16.0205 1.5H60.9824C61.4699 1.50004 61.922 1.73656 62.2012 2.12598L62.3105 2.30176V2.30273L70.3623 17.626C70.887 18.6248 70.1625 19.8232 69.0342 19.8232H5.65234C4.48718 19.8232 3.78072 18.5616 4.35059 17.5771L4.41016 17.4834L14.7783 2.15918C15.0574 1.74697 15.5227 1.5 16.0205 1.5Z" fill="white" stroke="#999999" stroke-width="3"/>
<rect x="50.668" y="7.60291" width="6.81868" height="6.11765" fill="white" stroke="#999999" stroke-width="0.5"/>
<path d="M51.2317 2.94116V3.67646L50.8251 4.0441V4.41175L51.2317 4.7794V5.14704L52.0449 5.51469V5.88234V6.24999L51.6383 6.61763V6.98528V7.35293" stroke="#999999" stroke-opacity="0.6"/>
<path d="M54.8901 3.30884L54.4835 4.04413L54.8901 4.41178V4.77943L55.3555 5.25235L54.8901 5.88237L55.2967 6.25001L54.8901 6.61766L55.2967 6.98531V7.35296" stroke="#999999" stroke-opacity="0.69"/>
<path d="M56.9235 3.30884L56.5169 3.67648V4.04413L56.9235 4.41178L56.5169 4.77943V5.14707H56.9235L57.3301 5.51472L56.9235 5.88237L57.3301 6.25001L56.9235 6.61766H56.5169V6.98531V7.35296" stroke="#999999" stroke-opacity="0.6"/>
<path d="M53.2633 3.30884L52.8567 4.04413V4.41178V4.77943L53.6699 5.14707V5.88233L53.2633 6.61766V7.35292" stroke="#999999" stroke-opacity="0.6"/>
<line x1="37.0938" y1="30.1471" x2="37.0938" y2="47.7942" stroke="#999999"/>
</svg>
